<?xml version="1.0" encoding="utf-8"?>
<!-- Generator: Adobe Illustrator 18.1.1, SVG Export Plug-In . SVG Version: 6.00 Build 0)  -->
<svg version="1.1" id="Layer_1" xmlns="http://www.w3.org/2000/svg" xmlns:xlink="http://www.w3.org/1999/xlink" x="0px" y="0px"
	 viewBox="0 0 100 100" enable-background="new 0 0 100 100" xml:space="preserve">
<symbol  id="Bullet_7_-_Grey" viewBox="-18.7 -20.9 37.5 41.9">
	<g>
		
			<radialGradient id="SVGID_1_" cx="306.9924" cy="-16253.4707" r="33.5063" gradientTransform="matrix(0 -1 1 0 16273.4082 310.4995)" gradientUnits="userSpaceOnUse">
			<stop  offset="0" style="stop-color:#FFFFFF"/>
			<stop  offset="1" style="stop-color:#B1BFC7"/>
		</radialGradient>
		<path fill="url(#SVGID_1_)" d="M-14.9-20.4c-2.1,0-3.3,1.7-3.3,4.4v32c0,2.7,1.3,4.4,3.3,4.4c0.9,0,1.8-0.3,2.8-0.9l27.7-16
			c1.7-1,2.6-2.2,2.6-3.6c0-1.3-0.9-2.6-2.6-3.6l-27.7-16C-13.1-20.1-14-20.4-14.9-20.4z"/>
		<g>
			<path fill="#8C98A0" d="M-14.9,19.9L-14.9,19.9c0.8,0,1.7-0.3,2.6-0.8l27.7-16c1.5-0.9,2.4-2,2.4-3.1c0-1.1-0.8-2.3-2.4-3.1
				l-27.7-16c-0.9-0.5-1.8-0.8-2.6-0.8c-1.8,0-2.8,1.5-2.8,3.9v32C-17.7,18.5-16.7,19.9-14.9,19.9 M-14.9,20.9
				c-2.3,0-3.9-1.8-3.9-4.9v-32c0-3.1,1.6-4.9,3.8-4.9c0.9,0,2,0.3,3.1,0.9L15.9-4c3.8,2.2,3.8,5.8,0,8l-27.7,16
				C-12.9,20.6-14,20.9-14.9,20.9L-14.9,20.9z"/>
		</g>
	</g>
	<g>
		<linearGradient id="SVGID_2_" gradientUnits="userSpaceOnUse" x1="32.1924" y1="-0.122" x2="-36.353" y2="-16.9679">
			<stop  offset="0" style="stop-color:#FFFFFF"/>
			<stop  offset="1" style="stop-color:#000000"/>
		</linearGradient>
		<path fill="url(#SVGID_2_)" d="M14.9,2.3l-0.8,0.5C14.7,2.2,15,1.7,15,1.1c0-0.8-0.7-1.6-1.9-2.3l-27.9-16.1
			c-0.6-0.3-1.1-0.5-1.6-0.6c0.3-0.6,0.7-1,1.5-1c0.6,0,1.3,0.2,2.1,0.7l27.7,16c1.2,0.7,1.9,1.5,1.9,2.3S16.1,1.6,14.9,2.3z"/>
	</g>
	<g>
		<linearGradient id="SVGID_3_" gradientUnits="userSpaceOnUse" x1="-18.4038" y1="18.2127" x2="1.5947" y2="-6.7856">
			<stop  offset="0" style="stop-color:#FFFFFF"/>
			<stop  offset="1" style="stop-color:#000000"/>
		</linearGradient>
		<path fill="url(#SVGID_3_)" d="M0.6,4.5c2.5,0.8,5,1.3,7.4,1.7l-20.9,12.1c-0.8,0.4-1.5,0.7-2.1,0.7c-1.7,0-1.8-2.1-1.8-2.9V-4.9
			C-12.5-1.1-6.5,2.3,0.6,4.5z"/>
	</g>
</symbol>
<pattern  width="82.1" height="82.1" patternUnits="userSpaceOnUse" id="Unnamed_Pattern_1" viewBox="43.8 -87.8 82.1 82.1" overflow="visible">
	<g>
		<polygon fill="none" points="43.8,-5.7 43.8,-87.8 125.9,-87.8 125.9,-5.7 		"/>
		<polygon fill="#BCBEC0" points="43.8,-5.7 43.8,-87.8 125.9,-87.8 125.9,-5.7 		"/>
		<line fill="#FFFFFF" x1="25.9" y1="-10.3" x2="30.5" y2="-5.7"/>
		<line fill="#FFFFFF" x1="25.9" y1="-5.7" x2="30.5" y2="-10.3"/>
		<polygon fill="#808285" points="129.3,-43.3 129.3,-47.9 38.1,-47.9 38.1,-43.3 		"/>
		<polygon fill="#808285" points="129.3,-16 129.3,-20.5 38.1,-20.5 38.1,-16 		"/>
		<polygon fill="#808285" points="129.3,-70.7 129.3,-75.2 38.1,-75.2 38.1,-70.7 		"/>
		<polygon fill="#808285" points="129.3,-52.4 129.3,-57 38.1,-57 38.1,-52.4 		"/>
		<polygon fill="#808285" points="129.3,-25.1 129.3,-29.6 38.1,-29.6 38.1,-25.1 		"/>
		<polygon fill="#808285" points="129.3,-79.8 129.3,-84.4 38.1,-84.4 38.1,-79.8 		"/>
		<polygon fill="#A7A9AC" points="25.9,-70.7 25.9,-75.2 16.8,-75.2 16.8,-70.7 		"/>
		<polygon fill="#808285" points="86,-91.2 81.4,-91.2 81.4,0 86,0 		"/>
		<polygon fill="#808285" points="113.3,-91.2 108.8,-91.2 108.8,0 113.3,0 		"/>
		<polygon fill="#808285" points="58.6,-91.2 54.1,-91.2 54.1,0 58.6,0 		"/>
		<polygon fill="#808285" points="95.1,-91.2 90.5,-91.2 90.5,0 95.1,0 		"/>
		<polygon fill="#808285" points="122.5,-91.2 117.9,-91.2 117.9,0 122.5,0 		"/>
		<polygon fill="#808285" points="67.7,-91.2 63.2,-91.2 63.2,0 67.7,0 		"/>
		<polygon fill="#A7A9AC" points="15.3,-76.8 15.3,-85.9 10.7,-85.9 10.7,-76.8 		"/>
		<line fill="none" stroke="#231F20" stroke-width="0.95" stroke-linecap="square" x1="43" y1="-36.5" x2="126.6" y2="-36.5"/>
		<line fill="none" stroke="#231F20" stroke-width="0.95" stroke-linecap="square" x1="43" y1="-9.1" x2="126.6" y2="-9.1"/>
		<line fill="none" stroke="#231F20" stroke-width="0.95" stroke-linecap="square" x1="43" y1="-63.8" x2="126.6" y2="-63.8"/>
		<line fill="none" stroke="#231F20" stroke-width="0.95" stroke-linecap="square" x1="0.5" y1="-63.8" x2="31.3" y2="-63.8"/>
		<line fill="none" stroke="#231F20" stroke-width="0.95" stroke-linecap="square" x1="74.6" y1="-88.5" x2="74.6" y2="-4.9"/>
		<line fill="none" stroke="#231F20" stroke-width="0.95" stroke-linecap="square" x1="101.9" y1="-88.5" x2="101.9" y2="-4.9"/>
		<line fill="none" stroke="#231F20" stroke-width="0.95" stroke-linecap="square" x1="47.2" y1="-88.5" x2="47.2" y2="-4.9"/>
		<line fill="none" stroke="#231F20" stroke-width="0.95" stroke-linecap="square" x1="3.9" y1="-91.2" x2="3.9" y2="-60.4"/>
		<polygon fill="#E5EAEC" points="15.3,-70.7 15.3,-75.2 10.7,-75.2 10.7,-70.7 		"/>
		<polygon fill="#E5EAEC" points="58.6,-70.7 58.6,-75.2 54.1,-75.2 54.1,-70.7 		"/>
		<polygon fill="#E5EAEC" points="67.7,-79.8 67.7,-84.4 63.2,-84.4 63.2,-79.8 		"/>
		<polygon fill="#E5EAEC" points="67.7,-70.7 67.7,-75.2 63.2,-75.2 63.2,-70.7 		"/>
		<polygon fill="#E5EAEC" points="58.6,-79.8 58.6,-84.4 54.1,-84.4 54.1,-79.8 		"/>
		<polygon fill="#E5EAEC" points="86,-70.7 86,-75.2 81.4,-75.2 81.4,-70.7 		"/>
		<polygon fill="#E5EAEC" points="95.1,-79.8 95.1,-84.4 90.5,-84.4 90.5,-79.8 		"/>
		<polygon fill="#E5EAEC" points="95.1,-70.7 95.1,-75.2 90.5,-75.2 90.5,-70.7 		"/>
		<polygon fill="#E5EAEC" points="86,-79.8 86,-84.4 81.4,-84.4 81.4,-79.8 		"/>
		<polygon fill="#E5EAEC" points="113.3,-70.7 113.3,-75.2 108.8,-75.2 108.8,-70.7 		"/>
		<polygon fill="#E5EAEC" points="122.5,-79.8 122.5,-84.4 117.9,-84.4 117.9,-79.8 		"/>
		<polygon fill="#E5EAEC" points="122.5,-70.7 122.5,-75.2 117.9,-75.2 117.9,-70.7 		"/>
		<polygon fill="#E5EAEC" points="113.3,-79.8 113.3,-84.4 108.8,-84.4 108.8,-79.8 		"/>
		<polygon fill="#E5EAEC" points="58.6,-43.3 58.6,-47.9 54.1,-47.9 54.1,-43.3 		"/>
		<polygon fill="#E5EAEC" points="67.7,-52.4 67.7,-57 63.2,-57 63.2,-52.4 		"/>
		<polygon fill="#E5EAEC" points="67.7,-43.3 67.7,-47.9 63.2,-47.9 63.2,-43.3 		"/>
		<polygon fill="#E5EAEC" points="58.6,-52.4 58.6,-57 54.1,-57 54.1,-52.4 		"/>
		<polygon fill="#E5EAEC" points="86,-43.3 86,-47.9 81.4,-47.9 81.4,-43.3 		"/>
		<polygon fill="#E5EAEC" points="95.1,-52.4 95.1,-57 90.5,-57 90.5,-52.4 		"/>
		<polygon fill="#E5EAEC" points="95.1,-43.3 95.1,-47.9 90.5,-47.9 90.5,-43.3 		"/>
		<polygon fill="#E5EAEC" points="86,-52.4 86,-57 81.4,-57 81.4,-52.4 		"/>
		<polygon fill="#E5EAEC" points="113.3,-43.3 113.3,-47.9 108.8,-47.9 108.8,-43.3 		"/>
		<polygon fill="#E5EAEC" points="122.5,-52.4 122.5,-57 117.9,-57 117.9,-52.4 		"/>
		<polygon fill="#E5EAEC" points="122.5,-43.3 122.5,-47.9 117.9,-47.9 117.9,-43.3 		"/>
		<polygon fill="#E5EAEC" points="113.3,-52.4 113.3,-57 108.8,-57 108.8,-52.4 		"/>
		<polygon fill="#E5EAEC" points="58.6,-16 58.6,-20.5 54.1,-20.5 54.1,-16 		"/>
		<polygon fill="#E5EAEC" points="67.7,-25.1 67.7,-29.6 63.2,-29.6 63.2,-25.1 		"/>
		<polygon fill="#E5EAEC" points="67.7,-16 67.7,-20.5 63.2,-20.5 63.2,-16 		"/>
		<polygon fill="#E5EAEC" points="58.6,-25.1 58.6,-29.6 54.1,-29.6 54.1,-25.1 		"/>
		<polygon fill="#E5EAEC" points="86,-16 86,-20.5 81.4,-20.5 81.4,-16 		"/>
		<polygon fill="#E5EAEC" points="95.1,-25.1 95.1,-29.6 90.5,-29.6 90.5,-25.1 		"/>
		<polygon fill="#E5EAEC" points="95.1,-16 95.1,-20.5 90.5,-20.5 90.5,-16 		"/>
		<polygon fill="#E5EAEC" points="86,-25.1 86,-29.6 81.4,-29.6 81.4,-25.1 		"/>
		<polygon fill="#E5EAEC" points="113.3,-16 113.3,-20.5 108.8,-20.5 108.8,-16 		"/>
		<polygon fill="#E5EAEC" points="122.5,-25.1 122.5,-29.6 117.9,-29.6 117.9,-25.1 		"/>
		<polygon fill="#E5EAEC" points="122.5,-16 122.5,-20.5 117.9,-20.5 117.9,-16 		"/>
		<polygon fill="#E5EAEC" points="113.3,-25.1 113.3,-29.6 108.8,-29.6 108.8,-25.1 		"/>
	</g>
</pattern>
<g>
	<g>
		<path fill="#FFFFFF" d="M-9.1,72.7c0,0,0-5,0-5C-9.2,67.7-9.2,72.7-9.1,72.7L-9.1,72.7z"/>
	</g>
</g>
<g display="none">
	<g display="inline">
		<g>
			<g>
				<path fill="none" stroke="#000000" stroke-miterlimit="10" d="M86.3,64.4L57.1,21.9c-3.1-4.5-8.2-4.5-11.4,0L15.7,64.8
					C12.6,69.4,14.5,73,20,73L82,72.7C87.5,72.6,89.4,68.9,86.3,64.4z"/>
			</g>
			<g>
				<path fill="none" stroke="#000000" stroke-width="5" stroke-miterlimit="10" d="M86.3,64.4L57.1,21.9c-3.1-4.5-8.2-4.5-11.4,0
					L15.7,64.8C12.6,69.4,14.5,73,20,73L82,72.7C87.5,72.6,89.4,68.9,86.3,64.4z"/>
			</g>
			<g>
				<path fill="#FFFFFF" d="M86.3,64.4L57.1,21.9c-3.1-4.5-8.2-4.5-11.4,0L15.7,64.8C12.6,69.4,14.5,73,20,73L82,72.7
					C87.5,72.6,89.4,68.9,86.3,64.4z"/>
			</g>
		</g>
	</g>
</g>
<use xlink:href="#Bullet_7_-_Grey"  width="37.5" height="41.9" x="-18.7" y="-20.9" transform="matrix(-2.282951e-10 -1.695 -1.695 2.282951e-10 49.0004 48.0001)" overflow="visible"/>
</svg>
