<svg xmlns="http://www.w3.org/2000/svg" viewBox="0 0 612 792" enable-background="new 0 0 612 792"><path fill="#fff" d="M265 380v59s-1.9 6.1-11.7 16c-10.6 10.7-13.6 21-3.3 28.6 11.5 8.5 23.8-1.4 25.5-7.9.9-3.4 3.6-5 6.3-5"/><path d="M262.5 380v59h2.5l-2.4-.7 1.3.4-1.2-.4 1.3.4-1.2-.4s0 .1-.1.3c-.5 1.2-2.9 6.6-11 14.8-3.1 3.2-5.7 6.4-7.5 9.6-1.8 3.2-2.9 6.5-2.9 9.8 0 2.4.6 4.8 1.8 7 1.2 2.2 3.1 4.2 5.5 6 3.6 2.7 7.4 3.8 11 3.8 2.3 0 4.6-.5 6.6-1.3 3-1.2 5.7-3 7.7-5.1 1-1 1.9-2.1 2.6-3.3.7-1.1 1.2-2.3 1.6-3.5.3-1.2.9-1.9 1.6-2.4.7-.5 1.5-.8 2.4-.8v-5c-1.8 0-3.7.6-5.3 1.7-1.6 1.2-2.9 2.9-3.4 5.2-.2.8-.7 1.8-1.5 2.9-1.2 1.6-3 3.3-5.1 4.5-2.1 1.2-4.5 2-7 2s-5.2-.8-8-2.8c-2-1.5-3.3-2.9-4.1-4.4-.8-1.5-1.2-3-1.2-4.6 0-2.2.7-4.6 2.2-7.3 1.5-2.7 3.8-5.6 6.7-8.5 10-10.2 12.2-16.6 12.3-17l.1-.4v-59.5h-5.3z"/><path fill="#fff" d="M298.5 380v59s1.9 6.1 11.7 16c10.6 10.7 13.6 21 3.3 28.6-11.5 8.5-23.8-1.4-25.5-7.9-.9-3.4-3.6-5-6.3-5"/><path d="M296 380v59.4l.1.4c.1.4 2.2 6.9 12.3 17 2.9 3 5.2 5.9 6.7 8.5 1.5 2.7 2.2 5.2 2.2 7.3 0 1.6-.4 3.1-1.2 4.6-.8 1.5-2.1 3-4.1 4.4-2.8 2.1-5.5 2.8-8 2.8-1.7 0-3.3-.3-4.8-.9-2.3-.9-4.4-2.3-5.9-3.9-.8-.8-1.4-1.6-1.9-2.4-.5-.8-.8-1.5-1-2.1-.6-2.2-1.8-4-3.4-5.2-1.6-1.2-3.5-1.7-5.3-1.7v5c.8 0 1.7.3 2.4.8s1.2 1.2 1.6 2.4c.4 1.6 1.2 3.1 2.3 4.6 1.6 2.2 3.9 4.3 6.6 5.8 2.7 1.6 6 2.6 9.5 2.6 3.6 0 7.4-1.1 11-3.8 2.4-1.8 4.2-3.8 5.5-6 1.2-2.2 1.8-4.6 1.8-7 0-3.3-1.1-6.6-2.9-9.8-1.8-3.2-4.4-6.4-7.5-9.6-4.8-4.8-7.6-8.7-9.1-11.3-.8-1.3-1.3-2.3-1.6-2.9-.1-.3-.2-.5-.3-.7v-.1l-1.2.4 1.3-.4-1.2.4 1.3-.4-2.4.7h2.5v-59h-5.3zM257.7 344c-1.7 20.5-5.3 45.8-5.3 45.8-1.5 8.2 24.7-11.3 29.4-14.8 0 0 25.1 18.6 28.6 14.1s-7-29.8-4.3-45.1c2.8-16 36.3-29.7 52.3-46.7 21.3-22.7 18.1-67.6 16.7-76.7-4-25.3-32.2-66.7-40.7-72.7s-120.9 47-121.4 58-12.1 61.7-.2 84c12.9 24.4 45.3 48.9 44.9 54.1zM257.7 344h-.5c-.8 10.2-2.2 21.7-3.3 30.6-.6 4.4-1.1 8.2-1.4 10.9-.4 2.7-.6 4.3-.6 4.3l.5.1-.5-.1c0 .3-.1.5-.1.7 0 .6.2 1.1.6 1.4.4.3.9.5 1.4.5.8 0 1.7-.2 2.8-.6 3.7-1.4 9.2-4.8 14.2-8.2 5-3.4 9.5-6.8 11.3-8l-.3-.4-.3.4s5 3.7 10.9 7.4c2.9 1.9 6.1 3.7 8.9 5.1 2.9 1.4 5.4 2.4 7.3 2.4.5 0 .9-.1 1.3-.2s.7-.4 1-.7c.6-.8.8-2 .8-3.5 0-3.8-1.4-9.7-2.8-16.2-1.4-6.6-2.7-13.8-2.7-20.1 0-1.9.1-3.8.4-5.5.7-3.8 3.2-7.6 7-11.4 5.6-5.6 13.9-11.2 22.3-16.9 8.4-5.7 16.9-11.7 22.9-18.1 7.4-7.9 11.9-18.4 14.5-29.2 2.6-10.8 3.4-21.8 3.4-30.7 0-8-.6-14.4-1.1-17.2-2-12.8-10.1-29.5-18.7-43.8-4.3-7.1-8.8-13.7-12.7-18.8-3.9-5.1-7.3-8.9-9.5-10.4-.6-.4-1.4-.6-2.5-.6-2.3 0-5.9.8-10.4 2.1-15.7 4.7-42.9 16.5-66.1 28.3-11.6 5.9-22.3 11.8-30.1 16.8-3.9 2.5-7.1 4.8-9.3 6.7-1.1 1-2 1.9-2.6 2.7-.6.8-1 1.6-1 2.3-.2 3.6-1.5 11.6-2.9 21.5-1.3 9.9-2.6 21.7-2.6 32.9 0 11.4 1.3 22.2 5.4 29.8 6.5 12.1 17.7 24.3 27.4 34.1 4.8 4.9 9.2 9.2 12.4 12.6 1.6 1.7 2.9 3.2 3.8 4.4.4.6.8 1.1 1 1.6.2.4.3.8.3 1v.1l.2-.1h.5v-.1c0-.5-.2-.9-.4-1.5-1-1.9-3.4-4.7-6.9-8.2-10.2-10.5-28.7-27.6-37.7-44.4-3.9-7.4-5.3-18-5.3-29.4 0-11.1 1.3-22.9 2.6-32.8 1.3-9.9 2.7-17.9 2.9-21.6 0-.5.4-1.2 1.1-2.1 1.4-1.7 4-3.8 7.6-6.3 12.5-8.6 36.4-21.1 59-31.3 11.3-5.1 22.3-9.7 31.3-13 4.5-1.6 8.6-3 11.9-3.9 3.4-.9 6.1-1.4 7.8-1.4 1 0 1.6.2 1.9.4 2 1.4 5.4 5.1 9.3 10.2 5.8 7.6 12.9 18.5 18.9 29.7 6 11.3 10.9 23 12.3 32.4.4 2.8 1.1 9.1 1.1 17.1 0 8.8-.8 19.8-3.3 30.4-2.6 10.7-7 21-14.3 28.7-7.9 8.4-20.3 16.1-31 23.6-5.4 3.8-10.4 7.5-14.2 11.4-3.8 3.8-6.5 7.8-7.2 11.9-.3 1.8-.4 3.7-.4 5.7 0 6.4 1.4 13.7 2.8 20.3 1.4 6.6 2.7 12.5 2.7 16 0 1.4-.2 2.4-.6 2.9-.1.2-.3.3-.5.4-.2.1-.5.1-.9.1-1.5 0-4-.9-6.8-2.3-4.2-2.1-9.1-5.2-13-7.8-1.9-1.3-3.6-2.5-4.8-3.3-.6-.4-1.1-.8-1.4-1-.3-.2-.5-.4-.5-.4l-.3-.2-.3.2c-1.9 1.4-7.6 5.6-13.4 9.5-2.9 1.9-5.9 3.7-8.4 5.1-1.3.7-2.4 1.2-3.4 1.6-1 .4-1.8.6-2.4.6-.4 0-.6-.1-.8-.2-.1-.1-.2-.3-.2-.7 0-.1 0-.3.1-.5 0 0 3.6-25.3 5.3-45.8h-.7zM248.8 182.6c.2.2.4.4.7.5.2.1.3.2.6.3.2.1.5.2.9.2s.9-.1 1.4-.4c.3-.2.6-.5.8-.8.3-.4.4-.8.4-1 .1-.3.1-.5.1-.7 0-.3 0-.5-.1-.8l-.2-1.1c-.1-.5-.3-1.1-.4-1.7-.1-.6-.2-1.2-.2-1.6v-.4l-1.5-.2 1.4.7c0-.1.1-.2.1-.5l-1.5-.2 1.4.7-.7-.3.7.4v-.1l-.7-.3.7.4.4-.4c.4-.4 1.2-.9 2.1-1.5 1.6-1 3.7-2.2 6.1-3.4 3.5-1.8 7.5-3.5 11-4.8 1.7-.6 3.3-1.2 4.5-1.5.6-.2 1.2-.3 1.6-.4.4-.1.7-.1.8-.1v-.6l-.1.6h.1v-.6l-.1.6.2-1.5-.6 1.4c.2.1.3.1.3.1l.2-1.5-.6 1.4c.4.2.7.4 1 .7.4.4.8 1 1.1 1.8.3.8.5 1.7.7 2.7l5-.7c-.2-1.7-.7-3.5-1.5-5.1-.4-.8-1-1.6-1.7-2.3-.7-.7-1.6-1.3-2.6-1.7-.6-.2-1.1-.2-1.5-.3-.5 0-1 .1-1.5.2-1 .2-2.1.5-3.3.9-4.4 1.4-10.5 4-15.7 6.6-2.6 1.3-4.9 2.6-6.8 3.8-.9.6-1.7 1.2-2.3 1.8-.3.3-.6.6-.9 1.1-.3.4-.6.9-.6 1.7v.9c0 1.4.3 2.6.5 3.6.1.5.2.9.3 1.2 0 .2.1.3.1.3v.1l.8-.1h-.8v.1l.8-.1h-.8 1.7l-1.7-.3v.3h1.7l-1.7-.3 2.2.4-1.7-1.5c-.4.5-.5.9-.6 1.1l2.2.4-1.7-1.5 1.7 1.6-.9-2.2c-.3.1-.6.4-.8.6l1.7 1.6-.9-2.2.9 2.2v-2.3c-.2 0-.6 0-.9.2l.9 2.2v-2.3 2.2l.7-2c-.1 0-.4-.1-.7-.1v2.2l.7-2-.5 1.3.8-1.2s-.1-.1-.3-.1l-.5 1.3.8-1.2-.1.1.1-.1-.1.1.1-.1-.1-.1-3.1 3.6zM432 97h-2.5v475.5h-282v-473h284.5v-2.5h-2.5 2.5v-2.5h-289.5v483h292v-483h-2.5z"/><text transform="translate(185.574 534.111)" font-family="'LIGHTWEIGHT_SERIF'" font-size="48">Kickin Chicken</text><text transform="translate(230.843 550.911)"><tspan x="0" y="0" font-family="'HelveticaNeue'" font-size="14">Chicken &amp;</tspan><tspan x="67.7" y="0" font-family="'HelveticaNeue'" font-size="14">W</tspan><tspan x="80.1" y="0" font-family="'HelveticaNeue'" font-size="14">a</tspan><tspan x="87.7" y="0" font-family="'HelveticaNeue'" font-size="14">f</tspan><tspan x="91.6" y="0" font-family="'HelveticaNeue'" font-size="14">fles</tspan><tspan x="22.2" y="13.2" font-family="'HelveticaNeue'" font-size="11">Santa Cruz, CA</tspan></text></svg>