<svg xmlns="http://www.w3.org/2000/svg" viewBox="0 0 800 200" enable-background="new 0 0 800 200"><path fill="#fff" d="M381.5 127.5v24.6s-.8 2.5-4.9 6.7c-4.4 4.5-5.7 8.8-1.4 11.9 4.8 3.6 9.9-.6 10.6-3.3.4-1.4 1.5-2.1 2.6-2.1"/><path stroke="#231F20" stroke-width="5" stroke-miterlimit="10" d="M381.5 127.5v24.6s-.8 2.5-4.9 6.7c-4.4 4.5-5.7 8.8-1.4 11.9 4.8 3.6 9.9-.6 10.6-3.3.4-1.4 1.5-2.1 2.6-2.1" fill="none"/><path fill="#fff" d="M395.5 127.5v24.6s.8 2.5 4.9 6.7c4.4 4.5 5.7 8.8 1.4 11.9-4.8 3.6-9.9-.6-10.6-3.3-.4-1.4-1.5-2.1-2.6-2.1"/><path stroke="#231F20" stroke-width="5" stroke-miterlimit="10" d="M395.5 127.5v24.6s.8 2.5 4.9 6.7c4.4 4.5 5.7 8.8 1.4 11.9-4.8 3.6-9.9-.6-10.6-3.3-.4-1.4-1.5-2.1-2.6-2.1" fill="none"/><path fill="#231F20" d="M378.5 112.5c-.7 8.6-2.2 19.1-2.2 19.1-.6 3.4 10.3-4.7 12.3-6.2 0 0 10.5 7.8 12 5.9 1.5-1.9-2.9-12.4-1.8-18.8 1.2-6.7 15.2-12.4 21.8-19.5 8.9-9.5 7.6-28.2 7-32-1.7-10.6-13.4-27.8-17-30.3-3.5-2.5-50.5 19.6-50.7 24.2-.2 4.6-5 25.8-.1 35.1 5.3 10.1 18.8 20.3 18.7 22.5z"/><path stroke="#231F20" stroke-miterlimit="10" d="M378.5 112.5c-.7 8.6-2.2 19.1-2.2 19.1-.6 3.4 10.3-4.7 12.3-6.2 0 0 10.5 7.8 12 5.9 1.5-1.9-2.9-12.4-1.8-18.8 1.2-6.7 15.2-12.4 21.8-19.5 8.9-9.5 7.6-28.2 7-32-1.7-10.6-13.4-27.8-17-30.3-3.5-2.5-50.5 19.6-50.7 24.2-.2 4.6-5 25.8-.1 35.1 5.3 10.1 18.8 20.3 18.7 22.5z" fill="none"/><path stroke="#231F20" stroke-width="5" stroke-miterlimit="10" d="M375.4 44.3c.8.7-.1-1.1 0-2.4.1-1.4 11-6.2 12.2-5.7 1.2.5 1.6 1.7 1.8 3" fill="none"/><path stroke="#231F20" stroke-width="5" stroke-miterlimit="10" fill="none" d="M331.4 11.1h119.8v177.8h-119.8z"/><path fill="none" d="M53.5 78.6h257.2v40.6h-257.2z"/><text transform="translate(212.625 118.705)" font-family="'LIGHTWEIGHT_SERIF'" font-size="60">Kickin</text><path fill="none" d="M466.1 81.6h250.7v44.2h-250.7z"/><text transform="translate(466.131 121.763)" font-family="'LIGHTWEIGHT_SERIF'" font-size="60">Chicken</text></svg>