<?xml version="1.0" encoding="utf-8"?>
<!-- Generator: Adobe Illustrator 18.1.1, SVG Export Plug-In . SVG Version: 6.00 Build 0)  -->
<svg version="1.1" id="Layer_1" xmlns="http://www.w3.org/2000/svg" xmlns:xlink="http://www.w3.org/1999/xlink" x="0px" y="0px"
	 viewBox="0 0 612 792" enable-background="new 0 0 612 792" xml:space="preserve">
<g>
	<path fill="#FFFFFF" d="M304.3,480v59c0,0-1.9,6.1-11.7,16c-10.6,10.7-13.6,21-3.3,28.6c11.5,8.5,23.8-1.4,25.5-7.9
		c0.9-3.4,3.6-5,6.3-5"/>
	<path fill="none" stroke="#000000" stroke-width="5" stroke-miterlimit="10" d="M304.3,480v59c0,0-1.9,6.1-11.7,16
		c-10.6,10.7-13.6,21-3.3,28.6c11.5,8.5,23.8-1.4,25.5-7.9c0.9-3.4,3.6-5,6.3-5"/>
	<path fill="#FFFFFF" d="M337.8,480v59c0,0,1.9,6.1,11.7,16c10.6,10.7,13.6,21,3.3,28.6c-11.5,8.5-23.8-1.4-25.5-7.9
		c-0.9-3.4-3.6-5-6.3-5"/>
	<path fill="none" stroke="#000000" stroke-width="5" stroke-miterlimit="10" d="M337.8,480v59c0,0,1.9,6.1,11.7,16
		c10.6,10.7,13.6,21,3.3,28.6c-11.5,8.5-23.8-1.4-25.5-7.9c-0.9-3.4-3.6-5-6.3-5"/>
	<path d="M297,444c-1.7,20.5-5.3,45.8-5.3,45.8c-1.5,8.2,24.7-11.3,29.4-14.8c0,0,25.1,18.6,28.6,14.1s-7-29.8-4.3-45.1
		c2.8-16,36.3-29.7,52.3-46.7c21.3-22.7,18.1-67.6,16.7-76.7c-4-25.3-32.2-66.7-40.7-72.7s-120.9,47-121.4,58s-12.1,61.7-0.2,84
		C265,414.3,297.4,438.8,297,444z"/>
	<path fill="none" stroke="#000000" stroke-miterlimit="10" d="M297,444c-1.7,20.5-5.3,45.8-5.3,45.8c-1.5,8.2,24.7-11.3,29.4-14.8
		c0,0,25.1,18.6,28.6,14.1s-7-29.8-4.3-45.1c2.8-16,36.3-29.7,52.3-46.7c21.3-22.7,18.1-67.6,16.7-76.7c-4-25.3-32.2-66.7-40.7-72.7
		s-120.9,47-121.4,58s-12.1,61.7-0.2,84C265,414.3,297.4,438.8,297,444z"/>
	<path fill="none" stroke="#000000" stroke-width="5" stroke-miterlimit="10" d="M289.7,280.7c2,1.7-0.3-2.5,0-5.8
		c0.3-3.3,26.4-14.8,29.2-13.7c2.8,1.1,3.9,4.1,4.3,7.1"/>
	<rect x="184.3" y="201" fill="none" stroke="#000000" stroke-width="5" stroke-miterlimit="10" width="287" height="426"/>
</g>
</svg>
