<svg xmlns="http://www.w3.org/2000/svg" viewBox="0 0 612 792" enable-background="new 0 0 612 792"><path fill="#fff" d="M304.3 480v59s-1.9 6.1-11.7 16c-10.6 10.7-13.6 21-3.3 28.6 11.5 8.5 23.8-1.4 25.5-7.9.9-3.4 3.6-5 6.3-5"/><path stroke="#000" stroke-width="5" stroke-miterlimit="10" d="M304.3 480v59s-1.9 6.1-11.7 16c-10.6 10.7-13.6 21-3.3 28.6 11.5 8.5 23.8-1.4 25.5-7.9.9-3.4 3.6-5 6.3-5" fill="none"/><path fill="#fff" d="M337.8 480v59s1.9 6.1 11.7 16c10.6 10.7 13.6 21 3.3 28.6-11.5 8.5-23.8-1.4-25.5-7.9-.9-3.4-3.6-5-6.3-5"/><path stroke="#000" stroke-width="5" stroke-miterlimit="10" d="M337.8 480v59s1.9 6.1 11.7 16c10.6 10.7 13.6 21 3.3 28.6-11.5 8.5-23.8-1.4-25.5-7.9-.9-3.4-3.6-5-6.3-5" fill="none"/><path d="M297 444c-1.7 20.5-5.3 45.8-5.3 45.8-1.5 8.2 24.7-11.3 29.4-14.8 0 0 25.1 18.6 28.6 14.1s-7-29.8-4.3-45.1c2.8-16 36.3-29.7 52.3-46.7 21.3-22.7 18.1-67.6 16.7-76.7-4-25.3-32.2-66.7-40.7-72.7s-120.9 47-121.4 58-12.1 61.7-.2 84c12.9 24.4 45.3 48.9 44.9 54.1z"/><path stroke="#000" stroke-miterlimit="10" d="M297 444c-1.7 20.5-5.3 45.8-5.3 45.8-1.5 8.2 24.7-11.3 29.4-14.8 0 0 25.1 18.6 28.6 14.1s-7-29.8-4.3-45.1c2.8-16 36.3-29.7 52.3-46.7 21.3-22.7 18.1-67.6 16.7-76.7-4-25.3-32.2-66.7-40.7-72.7s-120.9 47-121.4 58-12.1 61.7-.2 84c12.9 24.4 45.3 48.9 44.9 54.1z" fill="none"/><path stroke="#000" stroke-width="5" stroke-miterlimit="10" d="M289.7 280.7c2 1.7-.3-2.5 0-5.8s26.4-14.8 29.2-13.7c2.8 1.1 3.9 4.1 4.3 7.1" fill="none"/><path stroke="#000" stroke-width="10" stroke-miterlimit="10" fill="none" d="M184.3 201h287v426h-287z"/></svg>