<?xml version="1.0" encoding="utf-8"?>
<!-- Generator: Adobe Illustrator 18.1.1, SVG Export Plug-In . SVG Version: 6.00 Build 0)  -->
<svg version="1.1" id="Layer_1" xmlns="http://www.w3.org/2000/svg" xmlns:xlink="http://www.w3.org/1999/xlink" x="0px" y="0px"
	 viewBox="0 0 200 100" enable-background="new 0 0 200 100" xml:space="preserve">
<symbol  id="Bullet_7_-_Grey" viewBox="-18.8 -20.9 37.5 41.8">
	<g>
		
			<radialGradient id="SVGID_1_" cx="156.9924" cy="-32587.4453" r="33.5063" gradientTransform="matrix(0 -1 1 0 32607.4082 160.4995)" gradientUnits="userSpaceOnUse">
			<stop  offset="0" style="stop-color:#FFFFFF"/>
			<stop  offset="1" style="stop-color:#B1BFC7"/>
		</radialGradient>
		<path fill="url(#SVGID_1_)" d="M-14.9-20.4c-2.1,0-3.3,1.7-3.3,4.4v32c0,2.7,1.3,4.4,3.3,4.4c0.9,0,1.8-0.3,2.8-0.9l27.7-16
			c1.7-1,2.6-2.2,2.6-3.6c0-1.3-0.9-2.6-2.6-3.6l-27.7-16C-13.1-20.1-14-20.4-14.9-20.4z"/>
		<g>
			<path fill="#8C98A0" d="M-14.9,19.9L-14.9,19.9c0.8,0,1.7-0.3,2.6-0.8l27.7-16c1.5-0.9,2.4-2,2.4-3.1S17-2.3,15.4-3.1l-27.7-16
				c-0.9-0.5-1.8-0.8-2.6-0.8c-1.8,0-2.8,1.5-2.8,3.9v32C-17.7,18.5-16.7,19.9-14.9,19.9 M-14.9,20.9c-2.3,0-3.9-1.8-3.9-4.9v-32
				c0-3.1,1.6-4.9,3.8-4.9c0.9,0,2,0.3,3.1,0.9L15.9-4c3.8,2.2,3.8,5.8,0,8l-27.7,16C-12.9,20.6-14,20.9-14.9,20.9L-14.9,20.9z"/>
		</g>
	</g>
	<g>
		<linearGradient id="SVGID_2_" gradientUnits="userSpaceOnUse" x1="32.2083" y1="-8.552258e-02" x2="-36.3371" y2="-16.9314">
			<stop  offset="0" style="stop-color:#FFFFFF"/>
			<stop  offset="1" style="stop-color:#000000"/>
		</linearGradient>
		<path fill="url(#SVGID_2_)" d="M14.9,2.3l-0.8,0.5C14.7,2.2,15,1.7,15,1.1c0-0.8-0.7-1.6-1.9-2.3l-27.9-16.1
			c-0.6-0.3-1.1-0.5-1.6-0.6c0.3-0.6,0.7-1,1.5-1c0.6,0,1.3,0.2,2.1,0.7l27.7,16c1.2,0.7,1.9,1.5,1.9,2.3S16.1,1.6,14.9,2.3z"/>
	</g>
	<g>
		<linearGradient id="SVGID_3_" gradientUnits="userSpaceOnUse" x1="-18.4071" y1="18.1901" x2="1.5914" y2="-6.8082">
			<stop  offset="0" style="stop-color:#FFFFFF"/>
			<stop  offset="1" style="stop-color:#000000"/>
		</linearGradient>
		<path fill="url(#SVGID_3_)" d="M0.6,4.5c2.5,0.8,5,1.3,7.4,1.7l-20.9,12.1c-0.8,0.4-1.5,0.7-2.1,0.7c-1.7,0-1.8-2.1-1.8-2.9v-21
			C-12.5-1.1-6.5,2.3,0.6,4.5z"/>
	</g>
</symbol>
<g>
	<g>
		<path fill="#FFFFFF" d="M40.9,72.7v-5C40.8,67.7,40.8,72.7,40.9,72.7L40.9,72.7z"/>
	</g>
</g>
<g display="none">
	<g display="inline">
		<g>
			<g>
				<path fill="none" stroke="#000000" stroke-miterlimit="10" d="M136.3,64.4l-29.2-42.5c-3.1-4.5-8.2-4.5-11.4,0l-30,42.9
					C62.6,69.4,64.5,73,70,73l62-0.3C137.5,72.6,139.4,68.9,136.3,64.4z"/>
			</g>
			<g>
				<path fill="none" stroke="#000000" stroke-width="5" stroke-miterlimit="10" d="M136.3,64.4l-29.2-42.5c-3.1-4.5-8.2-4.5-11.4,0
					l-30,42.9C62.6,69.4,64.5,73,70,73l62-0.3C137.5,72.6,139.4,68.9,136.3,64.4z"/>
			</g>
			<g>
				<path fill="#FFFFFF" d="M136.3,64.4l-29.2-42.5c-3.1-4.5-8.2-4.5-11.4,0l-30,42.9C62.6,69.4,64.5,73,70,73l62-0.3
					C137.5,72.6,139.4,68.9,136.3,64.4z"/>
			</g>
		</g>
	</g>
</g>
<use xlink:href="#Bullet_7_-_Grey"  width="37.5" height="41.8" x="-18.8" y="-20.9" transform="matrix(-2.279911e-10 -1.6927 -1.6927 2.279911e-10 98.9156 47.9152)" overflow="visible"/>
<g>
	<rect y="14" fill="#FFFFFF" width="200" height="86"/>
	<rect y="14" opacity="0.5" fill="#07EA1C" width="200" height="86"/>
</g>
<rect x="318" y="-64" fill="#07EA1C" width="200" height="86"/>
</svg>
